<?xml version="1.0" encoding="utf-8"?>
<!-- Generator: Adobe Illustrator 22.0.1, SVG Export Plug-In . SVG Version: 6.00 Build 0)  -->
<svg version="1.1" id="Слой_1" xmlns="http://www.w3.org/2000/svg" xmlns:xlink="http://www.w3.org/1999/xlink" x="0px" y="0px"
	 viewBox="0 0 130.6 16.8" style="enable-background:new 0 0 130.6 16.8;" xml:space="preserve">
<style type="text/css">
	.st0{fill:#463F3B;}
	.st1{clip-path:url(#SVGID_2_);fill:#463F3B;}
</style>
<polygon class="st0" points="101.7,5.3 96.3,16.2 107.1,16.2 "/>
<path class="st0" d="M88,15.3h2l-1-1.4L88,15.3z M94.9,16.2H94V7l-4.5,6.2l1.7,2.3l-0.4,0.7h-3.7l-0.4-0.7l1.7-2.3L84,7v9.2h-0.9
	V5.6l0.8-0.3l5.1,7.1l5.1-7.1l0.8,0.3V16.2z"/>
<g>
	<defs>
		<rect id="SVGID_1_" y="-10.5" width="130.6" height="38.1"/>
	</defs>
	<clipPath id="SVGID_2_">
		<use xlink:href="#SVGID_1_"  style="overflow:visible;"/>
	</clipPath>
	<path class="st1" d="M109.4,7.5c0.6,0,1.1-0.5,1.1-1.1c0-0.6-0.5-1.1-1.1-1.1c-0.6,0-1.1,0.5-1.1,1.1C108.3,7,108.8,7.5,109.4,7.5"
		/>
	<path class="st1" d="M118,14c-0.6,0-1.1,0.5-1.1,1.1c0,0.6,0.5,1.1,1.1,1.1c0.6,0,1.1-0.5,1.1-1.1C119.1,14.5,118.6,14,118,14"/>
	<path class="st1" d="M115.8,11.9c-0.6,0-1.1,0.5-1.1,1.1c0,0.6,0.5,1.1,1.1,1.1c0.6,0,1.1-0.5,1.1-1.1
		C116.9,12.4,116.4,11.9,115.8,11.9"/>
	<path class="st1" d="M111.5,9.7c0.6,0,1.1-0.5,1.1-1.1c0-0.6-0.5-1.1-1.1-1.1c-0.6,0-1.1,0.5-1.1,1.1
		C110.4,9.2,110.9,9.7,111.5,9.7"/>
	<path class="st1" d="M118,7.5c0.6,0,1.1-0.5,1.1-1.1c0-0.6-0.5-1.1-1.1-1.1c-0.6,0-1.1,0.5-1.1,1.1C116.9,7,117.4,7.5,118,7.5"/>
	<path class="st1" d="M109.4,14c-0.6,0-1.1,0.5-1.1,1.1c0,0.6,0.5,1.1,1.1,1.1c0.6,0,1.1-0.5,1.1-1.1C110.4,14.5,110,14,109.4,14"/>
	<path class="st1" d="M113.7,9.7c-0.6,0-1.1,0.5-1.1,1.1c0,0.6,0.5,1.1,1.1,1.1c0.6,0,1.1-0.5,1.1-1.1
		C114.8,10.2,114.3,9.7,113.7,9.7"/>
	<path class="st1" d="M111.5,11.8c-0.6,0-1.1,0.5-1.1,1.1c0,0.6,0.5,1.1,1.1,1.1c0.6,0,1.1-0.5,1.1-1.1
		C112.6,12.3,112.1,11.8,111.5,11.8"/>
	<path class="st1" d="M115.8,9.7c0.6,0,1.1-0.5,1.1-1.1c0-0.6-0.5-1.1-1.1-1.1c-0.6,0-1.1,0.5-1.1,1.1
		C114.8,9.2,115.2,9.7,115.8,9.7"/>
	<path class="st1" d="M73.3,10.7c-0.2,1.6-0.9,2.9-1.9,2.9c-1,0-1.4-1.3-1.2-2.9C70.3,9.1,71,7.8,72,7.8
		C73.1,7.8,73.5,9.1,73.3,10.7 M78.1,15c0.3-0.6-1.2,0.1-0.9-3.2c0.2-1.5,0.9-6.3,0.9-6.3c0-0.1-0.1-0.1-0.1-0.1h-4.2
		c0,0-0.1,0-0.1,0.1c0,0-0.1,0.6-0.2,1.5c-0.5-1.2-1.4-2-2.9-2c-2.8,0-4.6,2.6-4.9,5.5c-0.4,2.8,0.8,6.1,3.4,6.1
		c1.5,0,2.8-1,3.6-2.4c0.1,1.5,1.1,2.4,2.6,2.4C76.6,16.5,77.8,15.6,78.1,15 M59.2,5.9c0.2-0.7,0.8-2.8,1.7-2.8
		c0.5,0,0.5,0.3,0.5,0.6C61.2,5,59.2,5.9,59.2,5.9 M59.5,9.7c1.1,0.2,1.4,0.9,1.3,2.1c0,0.6-0.5,2.4-1.6,2.4c-1.5,0-1.1-3.4-0.9-4.3
		C58.2,9.8,58.9,9.6,59.5,9.7 M64.6,10.8c-0.2-3-3.6-3.7-6-2.8l0.1-0.4c8.6-1,7.2-7.4,3-7.2C56.7,0.4,54,6.6,54,11.2
		c0,2.9,1.7,5.4,4.9,5.4C62.2,16.6,64.9,14.2,64.6,10.8 M51.7,16.1c0,0,1.2-10,1.3-10.5c0-0.1,0-0.1-0.1-0.1h0
		c-3.3-0.7-6.3-0.6-9.2,0c0,0-0.1,0-0.1,0.1c0,0-0.4,3.4-1,5.1c-1.2,3.1-2.5,3.2-2.6,3.6c-0.1,0.4,0.5,2.3,2.4,2.3
		c1.7,0,2.9-1.1,3.5-3.7c0.4-1.7,0.7-3.5,0.8-5.5h1.7c-0.4,3.1-1.1,8.6-1.1,8.6c0,0.1,0.1,0.1,0.1,0.1h4.1
		C51.6,16.2,51.7,16.2,51.7,16.1 M34.5,10.7c-0.2,1.6-0.9,2.9-1.9,2.9c-1,0-1.4-1.3-1.2-2.9c0.2-1.6,0.9-2.9,1.9-2.9
		C34.3,7.8,34.7,9.1,34.5,10.7 M39.4,15c0.3-0.6-1.3,0.1-0.8-3.2c0.2-1.5,0.9-6.3,0.9-6.3c0-0.1-0.1-0.1-0.1-0.1h-4.2
		c0,0-0.1,0-0.1,0.1c0,0-0.1,0.6-0.2,1.5c-0.5-1.2-1.4-2-2.9-2c-2.8,0-4.6,2.6-4.9,5.5c-0.4,2.8,0.8,6.1,3.4,6.1
		c1.5,0,2.7-1,3.6-2.4c0.1,1.5,1.1,2.4,2.6,2.4C37.8,16.5,39.1,15.6,39.4,15 M26,16.2h-5.7c-0.1,0-0.1-0.1-0.1-0.1l-2.3-5.6
		c-2,1.4-0.9,3.7-0.5,4.2c0.2,0.3-0.9,2-2.9,2c-1.8,0-3.2-1.5-3.1-3.4c0.1-2.2,2.5-4.4,5.5-5.3l-3.4-6.9c0,0,0-0.1,0.1-0.1H19
		c0.1,0,0.1,0.1,0.1,0.1l2.2,5.6c2.2-1.3,0.9-4.2,0.5-4.6c-0.2-0.1,0.4-1.5,2.4-1.6c2.1-0.2,3.4,1.3,3.4,3.2c0,2.2-2.2,4.5-5.2,5.4
		l3.7,7.1C26.1,16.1,26.1,16.2,26,16.2"/>
</g>
</svg>
