<?xml version="1.0" encoding="utf-8"?>
<!-- Generator: Adobe Illustrator 22.0.1, SVG Export Plug-In . SVG Version: 6.00 Build 0)  -->
<svg version="1.1" id="Слой_1" xmlns="http://www.w3.org/2000/svg" xmlns:xlink="http://www.w3.org/1999/xlink" x="0px" y="0px"
	 viewBox="0 0 127.5 16.4" style="enable-background:new 0 0 127.5 16.4;" xml:space="preserve">
<style type="text/css">
	.st0{clip-path:url(#SVGID_2_);fill:#463F3B;}
</style>
<g>
	<defs>
		<rect id="SVGID_1_" y="-10.7" width="127.5" height="38.1"/>
	</defs>
	<clipPath id="SVGID_2_">
		<use xlink:href="#SVGID_1_"  style="overflow:visible;"/>
	</clipPath>
	<path class="st0" d="M73.3,10.4c-0.2,1.6-0.9,2.9-1.9,2.9c-1,0-1.4-1.3-1.2-2.9c0.2-1.6,0.9-2.9,1.9-2.9
		C73.1,7.5,73.5,8.8,73.3,10.4 M78.2,14.8c0.3-0.6-1.2,0.1-0.9-3.2c0.2-1.5,0.9-6.3,0.9-6.3c0-0.1-0.1-0.1-0.1-0.1H74
		c0,0-0.1,0-0.1,0.1c0,0-0.1,0.6-0.2,1.5c-0.5-1.2-1.4-2-2.9-2c-2.8,0-4.6,2.6-4.9,5.5c-0.4,2.8,0.8,6.1,3.4,6.1
		c1.5,0,2.8-1,3.6-2.4c0.1,1.5,1.1,2.4,2.6,2.4C76.6,16.3,77.9,15.4,78.2,14.8 M59.2,5.7C59.4,5,60,2.9,60.9,2.9
		c0.5,0,0.5,0.3,0.5,0.6C61.3,4.7,59.2,5.7,59.2,5.7 M59.5,9.5c1.1,0.2,1.4,0.9,1.3,2.1c0,0.6-0.5,2.4-1.6,2.4
		c-1.5,0-1.1-3.4-0.9-4.3C58.3,9.6,59,9.4,59.5,9.5 M64.7,10.6c-0.2-3-3.6-3.7-6-2.8l0.1-0.4c8.6-1,7.2-7.4,3-7.2
		C56.7,0.2,54,6.4,54,11c0,2.9,1.7,5.4,4.9,5.4C62.2,16.3,64.9,14,64.7,10.6 M51.8,15.9c0,0,1.2-10,1.3-10.5c0-0.1,0-0.1-0.1-0.1h0
		c-3.3-0.7-6.3-0.6-9.2,0c0,0-0.1,0-0.1,0.1c0,0-0.4,3.4-1,5.1c-1.2,3.1-2.5,3.2-2.6,3.6c-0.1,0.4,0.5,2.3,2.4,2.3
		c1.7,0,2.9-1.1,3.5-3.7c0.4-1.7,0.7-3.5,0.8-5.5h1.7c-0.4,3.1-1.1,8.6-1.1,8.6c0,0.1,0.1,0.1,0.1,0.1h4.1
		C51.7,16,51.8,16,51.8,15.9 M34.5,10.4c-0.2,1.6-0.9,2.9-1.9,2.9c-1,0-1.4-1.3-1.2-2.9c0.2-1.6,0.9-2.9,1.9-2.9
		C34.3,7.5,34.7,8.8,34.5,10.4 M39.4,14.8c0.3-0.6-1.3,0.1-0.8-3.2c0.2-1.5,0.9-6.3,0.9-6.3c0-0.1-0.1-0.1-0.1-0.1h-4.2
		c0,0-0.1,0-0.1,0.1c0,0-0.1,0.6-0.2,1.5c-0.5-1.2-1.4-2-2.9-2c-2.8,0-4.6,2.6-4.9,5.5c-0.4,2.8,0.8,6.1,3.4,6.1
		c1.5,0,2.7-1,3.6-2.4c0.1,1.5,1.1,2.4,2.6,2.4C37.8,16.3,39.1,15.4,39.4,14.8 M26,16h-5.7c-0.1,0-0.1-0.1-0.1-0.1l-2.3-5.6
		c-2,1.4-0.9,3.7-0.5,4.2c0.2,0.3-0.9,2-2.9,2c-1.8,0-3.2-1.5-3.1-3.4c0.1-2.2,2.5-4.4,5.5-5.3l-3.4-6.9c0,0,0-0.1,0.1-0.1H19
		c0.1,0,0.1,0.1,0.1,0.1l2.2,5.6c2.2-1.3,0.9-4.2,0.5-4.6c-0.1-0.1,0.4-1.5,2.4-1.6c2.1-0.2,3.4,1.3,3.4,3.2c0,2.2-2.2,4.5-5.2,5.4
		l3.7,7.1C26.1,15.9,26.2,16,26,16"/>
	<polygon class="st0" points="93.8,6.6 93.2,7.3 94.9,7.3 94.9,6.6 	"/>
	<polygon class="st0" points="83.2,5.9 83.8,5.9 83.2,5.1 	"/>
	<polygon class="st0" points="94.3,5.9 94.9,5.9 94.9,5.1 	"/>
	<polygon class="st0" points="91.7,9.4 91.1,10.2 94.9,10.2 94.9,9.4 	"/>
	<polygon class="st0" points="92.8,8 92.2,8.8 94.9,8.8 94.9,8 	"/>
	<polygon class="st0" points="90.6,10.9 90,11.7 94.9,11.7 94.9,10.9 	"/>
	<polygon class="st0" points="83.2,10.9 83.2,11.7 88,11.7 87.5,10.9 	"/>
	<polygon class="st0" points="89.5,12.3 89,13 88.5,12.3 83.2,12.3 83.2,13.1 94.9,13.1 94.9,12.3 	"/>
	<rect x="83.2" y="13.8" class="st0" width="11.7" height="0.8"/>
	<rect x="83.2" y="15.2" class="st0" width="11.7" height="0.8"/>
	<polygon class="st0" points="83.2,8 83.2,8.8 85.9,8.8 85.3,8 	"/>
	<polygon class="st0" points="83.2,9.4 83.2,10.2 87,10.2 86.4,9.4 	"/>
	<polygon class="st0" points="83.2,6.6 83.2,7.3 84.8,7.3 84.2,6.6 	"/>
	<path class="st0" d="M105.8,6.7l8.7,8.7l1-1l-8.7-8.7L105.8,6.7z M114.7,16h-0.4l-9.1-9.1V6.5l1.4-1.4h0.4l9.1,9.1v0.4L114.7,16z"
		/>
	<path class="st0" d="M105.8,14.4l1,1l8.7-8.7l-1-1L105.8,14.4z M107,16h-0.4l-1.4-1.4v-0.4l9.1-9.1h0.4l1.4,1.4v0.4L107,16z"/>
	<rect x="98.2" y="8.8" class="st0" width="4.2" height="7.2"/>
	<path class="st0" d="M102.7,5.1c0,1.3-1.1,2.4-2.4,2.4c-1.3,0-2.4-1.1-2.4-2.4c0-1.3,1.1-2.4,2.4-2.4
		C101.6,2.7,102.7,3.8,102.7,5.1"/>
</g>
</svg>
