<svg version="1.1" xmlns="http://www.w3.org/2000/svg" xmlns:xlink="http://www.w3.org/1999/xlink" x="0px" y="0px"
	 viewBox="0 0 14.365 14.219" style="enable-background:new 0 0 14.365 14.219;" xml:space="preserve">
<path d="M6.609,8.344c-0.246-0.19-0.39-0.48-0.39-0.79v-3.46c0-0.55,0.448-1,1-1s1,0.45,1,1v2.97l1.61,1.24
	c0.437,0.33,0.519,0.96,0.183,1.4c-0.337,0.44-0.965,0.52-1.403,0.18L6.609,8.344z"/>
<path style="fill-rule:evenodd;clip-rule:evenodd;" d="M7.219,0.094c-3.866,0-7,3.13-7,7s3.134,7,7,7s7-3.13,7-7
	S11.085,0.094,7.219,0.094z M2.219,7.094c0-2.76,2.239-5,5-5s5,2.24,5,5s-2.239,5-5,5S2.219,9.854,2.219,7.094z"/>
</svg>
