<svg version="1.1" xmlns="http://www.w3.org/2000/svg" xmlns:xlink="http://www.w3.org/1999/xlink" x="0px" y="0px"
	 viewBox="0 0 14.05 14.596" style="enable-background:new 0 0 14.05 14.596;" xml:space="preserve">
<path style="fill-rule:evenodd;clip-rule:evenodd;" d="M2.016,7.278c0-2.76,2.239-5,5-5s5,2.24,5,5c0,2.31-0.901,2.94-1.243,3.03
	c-0.179,0.04-0.333,0-0.456-0.11c-0.129-0.12-0.301-0.39-0.301-0.92v-4c0-0.55-0.448-1-1-1c-0.276,0-0.526,0.11-0.707,0.29
	c-0.391-0.19-0.83-0.29-1.293-0.29c-1.657,0-3,1.34-3,3s1.343,3,3,3c0.381,0,0.745-0.07,1.08-0.2c0.131,0.64,0.425,1.19,0.869,1.59
	c0.627,0.58,1.473,0.79,2.294,0.58c1.658-0.41,2.757-2.28,2.757-4.97c0-3.87-3.134-7-7-7s-7,3.13-7,7s3.134,7,7,7
	c0.552,0,1-0.45,1-1s-0.448-1-1-1C4.255,12.278,2.016,10.038,2.016,7.278z M8.016,7.278c0-0.55-0.448-1-1-1s-1,0.45-1,1s0.448,1,1,1
	S8.016,7.828,8.016,7.278z"/>
</svg>
