<?xml version="1.0" encoding="utf-8"?>
<!-- Generator: Adobe Illustrator 23.0.6, SVG Export Plug-In . SVG Version: 6.00 Build 0)  -->
<svg version="1.1" id="b8075969-ef49-4240-a25e-f088236f2735"
	 xmlns="http://www.w3.org/2000/svg" xmlns:xlink="http://www.w3.org/1999/xlink" x="0px" y="0px" viewBox="0 0 933.32 629.29"
	 style="enable-background:new 0 0 933.32 629.29;" xml:space="preserve">
<style type="text/css">
	.st0{fill:#FF6584;}
	.st1{fill:none;stroke:#1C64E2;stroke-width:2;stroke-miterlimit:10;}
	.st2{fill:#1C64E2;}
	.st3{fill:url(#SVGID_1_);}
	.st4{fill:url(#SVGID_2_);}
	.st5{opacity:0.1;enable-background:new    ;}
	.st6{fill:url(#SVGID_3_);}
	.st7{fill:none;stroke:#3F3D56;stroke-width:2;stroke-miterlimit:10;}
	.st8{fill:none;stroke:#3B8BFF;stroke-width:2;stroke-miterlimit:10;}
	.st9{fill:url(#SVGID_4_);}
	.st10{fill:url(#SVGID_5_);}
	.st11{fill:url(#SVGID_6_);}
	.st12{clip-path:url(#SVGID_8_);fill:url(#SVGID_9_);}
	.st13{clip-path:url(#SVGID_11_);fill:#1C64E2;}
	.st14{clip-path:url(#SVGID_13_);fill:#1C64E2;}
	.st15{clip-path:url(#SVGID_15_);fill:#1C64E2;}
</style>
<circle class="st0" cx="798.13" cy="464.06" r="11.73"/>
<line class="st1" x1="890.6" y1="591.74" x2="890.6" y2="458.19"/>
<circle class="st2" cx="890.6" cy="458.19" r="18.89"/>
<linearGradient id="SVGID_1_" gradientUnits="userSpaceOnUse" x1="832.6596" y1="552.2643" x2="933.3214" y2="552.2643">
	<stop  offset="0" style="stop-color:#21ACEF"/>
	<stop  offset="0.2359" style="stop-color:#25AFEF"/>
	<stop  offset="0.4623" style="stop-color:#30B9F0"/>
	<stop  offset="0.6851" style="stop-color:#44C8F2"/>
	<stop  offset="0.9042" style="stop-color:#5FDEF5"/>
	<stop  offset="1" style="stop-color:#6DEAF6"/>
</linearGradient>
<path class="st3" d="M853.4,532.97c-27.28,41.83-19.8,95.04-19.8,95.04s51.7-14.62,78.98-56.45s19.81-95.04,19.81-95.04
	S880.68,491.14,853.4,532.97z"/>
<linearGradient id="SVGID_2_" gradientUnits="userSpaceOnUse" x1="717.9894" y1="557.9161" x2="833.4587" y2="557.9161">
	<stop  offset="0" style="stop-color:#21ACEF"/>
	<stop  offset="0.2359" style="stop-color:#25AFEF"/>
	<stop  offset="0.4623" style="stop-color:#30B9F0"/>
	<stop  offset="0.6851" style="stop-color:#44C8F2"/>
	<stop  offset="0.9042" style="stop-color:#5FDEF5"/>
	<stop  offset="1" style="stop-color:#6DEAF6"/>
</linearGradient>
<path class="st4" d="M833.45,627.53c0,0-0.66-0.11-1.89-0.35c-0.97-0.2-2.32-0.48-3.96-0.87c-14.65-3.45-53.61-15.13-79.08-45.84
	C716.66,542.02,718,488.31,718,488.31s48.74,7.92,80.86,42.45c1.39,1.48,2.75,3.02,4.06,4.61c27.74,33.45,30.32,78.46,30.53,89.59
	C833.47,626.62,833.45,627.53,833.45,627.53z"/>
<path class="st1" d="M813.79,532.97c27.28,41.83,19.8,95.04,19.8,95.04s-51.7-14.62-78.98-56.45s-19.8-95.04-19.8-95.04
	S786.51,491.14,813.79,532.97z"/>
<path class="st5" d="M833.44,624.95c-0.72,0.87-1.36,1.61-1.88,2.22c-1.16,1.32-1.82,2.01-1.82,2.01s-0.8-1-2.14-2.88
	c-7.37-10.27-31.07-46.8-29.24-88.99c0.1-2.21,0.26-4.4,0.49-6.56c1.39,1.48,2.75,3.02,4.06,4.61
	C830.65,568.82,833.24,613.83,833.44,624.95z"/>
<linearGradient id="SVGID_3_" gradientUnits="userSpaceOnUse" x1="803.2104" y1="538.8411" x2="873.9923" y2="538.8411">
	<stop  offset="0" style="stop-color:#21ACEF"/>
	<stop  offset="0.2359" style="stop-color:#25AFEF"/>
	<stop  offset="0.4623" style="stop-color:#30B9F0"/>
	<stop  offset="0.6851" style="stop-color:#44C8F2"/>
	<stop  offset="0.9042" style="stop-color:#5FDEF5"/>
	<stop  offset="1" style="stop-color:#6DEAF6"/>
</linearGradient>
<path class="st6" d="M873.89,540.37c-2.16,49.9-39.2,88.82-39.2,88.82s-33.54-41.97-31.39-91.87s39.2-88.82,39.2-88.82
	S876.05,490.47,873.89,540.37z"/>
<line class="st7" x1="834.7" y1="627.77" x2="842.84" y2="450.53"/>
<line class="st8" x1="57.47" y1="627.97" x2="903.49" y2="627.97"/>
<linearGradient id="SVGID_4_" gradientUnits="userSpaceOnUse" x1="194.4258" y1="369.0844" x2="279.8853" y2="369.0844">
	<stop  offset="0" style="stop-color:#21ACEF"/>
	<stop  offset="0.2359" style="stop-color:#25AFEF"/>
	<stop  offset="0.4623" style="stop-color:#30B9F0"/>
	<stop  offset="0.6851" style="stop-color:#44C8F2"/>
	<stop  offset="0.9042" style="stop-color:#5FDEF5"/>
	<stop  offset="1" style="stop-color:#6DEAF6"/>
</linearGradient>
<circle class="st9" cx="237.16" cy="369.08" r="42.73"/>
<linearGradient id="SVGID_5_" gradientUnits="userSpaceOnUse" x1="121.7962" y1="469.6485" x2="207.2557" y2="469.6485">
	<stop  offset="0" style="stop-color:#21ACEF"/>
	<stop  offset="0.2359" style="stop-color:#25AFEF"/>
	<stop  offset="0.4623" style="stop-color:#30B9F0"/>
	<stop  offset="0.6851" style="stop-color:#44C8F2"/>
	<stop  offset="0.9042" style="stop-color:#5FDEF5"/>
	<stop  offset="1" style="stop-color:#6DEAF6"/>
</linearGradient>
<circle class="st10" cx="164.53" cy="469.65" r="42.73"/>
<linearGradient id="SVGID_6_" gradientUnits="userSpaceOnUse" x1="32.4058" y1="549.9601" x2="117.8654" y2="549.9601">
	<stop  offset="0" style="stop-color:#21ACEF"/>
	<stop  offset="0.2359" style="stop-color:#25AFEF"/>
	<stop  offset="0.4623" style="stop-color:#30B9F0"/>
	<stop  offset="0.6851" style="stop-color:#44C8F2"/>
	<stop  offset="0.9042" style="stop-color:#5FDEF5"/>
	<stop  offset="1" style="stop-color:#6DEAF6"/>
</linearGradient>
<circle class="st11" cx="75.14" cy="549.96" r="42.73"/>
<line class="st1" x1="75.1" y1="627.24" x2="75.1" y2="549.73"/>
<circle class="st2" cx="75.1" cy="549.73" r="10.96"/>
<path class="st2" d="M75.1,597.5c0,0-1.57-33.68-33.67-29.76"/>
<line class="st1" x1="237.18" y1="627.78" x2="237.18" y2="369.24"/>
<circle class="st2" cx="237.18" cy="369.12" r="10.96"/>
<circle class="st2" cx="203.52" cy="556.17" r="10.96"/>
<path class="st2" d="M237.18,425.11c0,0-1.57-33.68-33.67-29.76"/>
<path class="st2" d="M237.18,520.58c0,0-1.57-33.68-33.67-29.76"/>
<path class="st1" d="M237.18,624.77c0,0,7.05-65.46-33.67-68.59"/>
<circle class="st2" cx="270.85" cy="556.17" r="10.96"/>
<path class="st1" d="M237.19,624.77c0,0-7.05-65.46,33.67-68.59"/>
<circle class="st2" cx="271.52" cy="453.35" r="10.96"/>
<path class="st1" d="M237.85,518.46c0,0-7.05-61.97,33.67-65.1"/>
<line class="st1" x1="164.56" y1="627.41" x2="164.56" y2="469.6"/>
<circle class="st2" cx="164.56" cy="469.6" r="10.96"/>
<path class="st2" d="M164.56,514.24c0,0-1.57-33.68-33.67-29.76"/>
<path class="st1" d="M164.56,624.4c0,0,7.05-64.76-33.67-67.9"/>
<circle class="st2" cx="130.9" cy="556.51" r="10.96"/>
<g>
	<g>
		<defs>
			<rect id="SVGID_7_" x="314.38" y="191.21" width="373.67" height="438.08"/>
		</defs>
		<clipPath id="SVGID_8_">
			<use xlink:href="#SVGID_7_"  style="overflow:visible;"/>
		</clipPath>
		<linearGradient id="SVGID_9_" gradientUnits="userSpaceOnUse" x1="314.3832" y1="410.0792" x2="687.0538" y2="410.0792">
			<stop  offset="0" style="stop-color:#21ACEF"/>
			<stop  offset="0.2359" style="stop-color:#25AFEF"/>
			<stop  offset="0.4623" style="stop-color:#30B9F0"/>
			<stop  offset="0.6851" style="stop-color:#44C8F2"/>
			<stop  offset="0.9042" style="stop-color:#5FDEF5"/>
			<stop  offset="1" style="stop-color:#6DEAF6"/>
		</linearGradient>
		<path class="st12" d="M685.07,580.84c-4.89-11.96-9.87-23.92-15.31-35.69c-4.8-10.51-10.96-13.59-22.47-10.96
			c-14.58,3.35-28.9,7.79-43.48,10.78c-28.18,5.89-56.44,6.43-84.25-2.35c-34.88-10.97-53.45-36.23-64.86-68.85h94.57
			c7.43,0,13.41-5.98,13.41-13.41v-29.8c0-7.43-5.98-13.41-13.41-13.41H445.65c0-8.33-0.09-16.31,0-24.28h103.63
			c7.43,0,13.41-5.98,13.41-13.41v-29.8c0-7.43-5.98-13.41-13.41-13.41h-90.59c0-0.36,0-0.73,0.18-0.91
			c10.87-24.73,26.72-44.57,52.72-54.9c30.26-11.96,61.15-11.68,92.31-5.25c14.76,2.99,29.26,7.52,44.02,10.87
			c10.78,2.45,17.03-0.72,21.65-10.78c5.34-11.59,10.24-23.37,15.13-35.24c4.62-11.14,1.9-19.02-8.6-25.18
			c-2.63-1.54-5.35-2.81-8.16-3.9c-43.66-17.03-88.68-23.37-135.16-15.94c-32.7,5.26-63.23,16.49-89.59,36.96
			c-33.25,25.72-54.81,59.69-67.31,99.65l-1.54,4.62h-46.56c-7.43,0-13.41,5.98-13.41,13.41v29.8c0,7.43,5.98,13.41,13.41,13.41
			h36.69v24.28h-36.69c-7.43,0-13.41,5.98-13.41,13.41v29.8c0,7.43,5.98,13.41,13.41,13.41H372c3.35,10.87,6.16,21.92,10.42,32.34
			c22.38,53.99,59.88,92.4,116.32,110.7c46.65,15.13,93.67,14.67,140.68,1.72c12.23-3.35,24.37-7.7,35.97-13.04
			C686.61,600.31,689.51,591.62,685.07,580.84L685.07,580.84z M685.07,580.84"/>
	</g>
</g>
<g>
	<g>
		<defs>
			<rect id="SVGID_10_" x="607.12" y="96.7" width="20.98" height="24.6"/>
		</defs>
		<clipPath id="SVGID_11_">
			<use xlink:href="#SVGID_10_"  style="overflow:visible;"/>
		</clipPath>
		<path class="st13" d="M627.94,118.57c-0.27-0.67-0.55-1.34-0.86-2c-0.27-0.59-0.62-0.76-1.26-0.62c-0.82,0.19-1.62,0.44-2.44,0.61
			c-1.58,0.33-3.17,0.36-4.73-0.13c-1.96-0.62-3-2.03-3.64-3.87h5.31c0.42,0,0.75-0.34,0.75-0.75v-1.67c0-0.42-0.34-0.75-0.75-0.75
			h-5.82c0-0.47-0.01-0.92,0-1.36h5.82c0.42,0,0.75-0.34,0.75-0.75v-1.67c0-0.42-0.34-0.75-0.75-0.75h-5.09c0-0.02,0-0.04,0.01-0.05
			c0.61-1.39,1.5-2.5,2.96-3.08c1.7-0.67,3.43-0.66,5.18-0.29c0.83,0.17,1.64,0.42,2.47,0.61c0.61,0.14,0.96-0.04,1.22-0.61
			c0.3-0.65,0.57-1.31,0.85-1.98c0.26-0.63,0.11-1.07-0.48-1.41c-0.15-0.09-0.3-0.16-0.46-0.22c-2.45-0.96-4.98-1.31-7.59-0.9
			c-1.84,0.3-3.55,0.93-5.03,2.08c-1.87,1.44-3.08,3.35-3.78,5.59l-0.09,0.26h-2.61c-0.42,0-0.75,0.34-0.75,0.75v1.67
			c0,0.42,0.34,0.75,0.75,0.75h2.06v1.36h-2.06c-0.42,0-0.75,0.34-0.75,0.75v1.67c0,0.42,0.34,0.75,0.75,0.75h2.48
			c0.19,0.61,0.35,1.23,0.58,1.82c1.26,3.03,3.36,5.19,6.53,6.22c2.62,0.85,5.26,0.82,7.9,0.1c0.69-0.19,1.37-0.43,2.02-0.73
			C628.02,119.67,628.19,119.18,627.94,118.57L627.94,118.57z M627.94,118.57"/>
	</g>
</g>
<g>
	<g>
		<defs>
			<rect id="SVGID_12_" x="745.5" y="356.07" width="20.98" height="24.6"/>
		</defs>
		<clipPath id="SVGID_13_">
			<use xlink:href="#SVGID_12_"  style="overflow:visible;"/>
		</clipPath>
		<path class="st14" d="M766.32,377.94c-0.27-0.67-0.55-1.34-0.86-2c-0.27-0.59-0.62-0.76-1.26-0.62c-0.82,0.19-1.62,0.44-2.44,0.61
			c-1.58,0.33-3.17,0.36-4.73-0.13c-1.96-0.62-3-2.03-3.64-3.87h5.31c0.42,0,0.75-0.34,0.75-0.75v-1.67c0-0.42-0.34-0.75-0.75-0.75
			h-5.82c0-0.47-0.01-0.92,0-1.36h5.82c0.42,0,0.75-0.34,0.75-0.75v-1.67c0-0.42-0.34-0.75-0.75-0.75h-5.09c0-0.02,0-0.04,0.01-0.05
			c0.61-1.39,1.5-2.5,2.96-3.08c1.7-0.67,3.43-0.66,5.18-0.29c0.83,0.17,1.64,0.42,2.47,0.61c0.61,0.14,0.96-0.04,1.22-0.61
			c0.3-0.65,0.57-1.31,0.85-1.98c0.26-0.63,0.11-1.07-0.48-1.41c-0.15-0.09-0.3-0.16-0.46-0.22c-2.45-0.96-4.98-1.31-7.59-0.9
			c-1.84,0.3-3.55,0.93-5.03,2.08c-1.87,1.44-3.08,3.35-3.78,5.59l-0.09,0.26h-2.61c-0.42,0-0.75,0.34-0.75,0.75v1.67
			c0,0.42,0.34,0.75,0.75,0.75h2.06v1.36h-2.06c-0.42,0-0.75,0.34-0.75,0.75v1.67c0,0.42,0.34,0.75,0.75,0.75h2.48
			c0.19,0.61,0.35,1.23,0.58,1.82c1.26,3.03,3.36,5.19,6.53,6.22c2.62,0.85,5.26,0.82,7.9,0.1c0.69-0.19,1.37-0.43,2.02-0.73
			C766.4,379.04,766.57,378.55,766.32,377.94L766.32,377.94z M766.32,377.94"/>
	</g>
</g>
<g>
	<g>
		<defs>
			<rect id="SVGID_14_" x="67.31" y="421.08" width="20.98" height="24.6"/>
		</defs>
		<clipPath id="SVGID_15_">
			<use xlink:href="#SVGID_14_"  style="overflow:visible;"/>
		</clipPath>
		<path class="st15" d="M88.12,442.96c-0.27-0.67-0.55-1.34-0.86-2c-0.27-0.59-0.62-0.76-1.26-0.62c-0.82,0.19-1.62,0.44-2.44,0.61
			c-1.58,0.33-3.17,0.36-4.73-0.13c-1.96-0.62-3-2.03-3.64-3.87h5.31c0.42,0,0.75-0.34,0.75-0.75v-1.67c0-0.42-0.34-0.75-0.75-0.75
			h-5.82c0-0.47-0.01-0.92,0-1.36h5.82c0.42,0,0.75-0.34,0.75-0.75v-1.67c0-0.42-0.34-0.75-0.75-0.75h-5.09c0-0.02,0-0.04,0.01-0.05
			c0.61-1.39,1.5-2.5,2.96-3.08c1.7-0.67,3.43-0.66,5.18-0.29c0.83,0.17,1.64,0.42,2.47,0.61c0.61,0.14,0.96-0.04,1.22-0.61
			c0.3-0.65,0.57-1.31,0.85-1.98c0.26-0.63,0.11-1.07-0.48-1.41c-0.15-0.09-0.3-0.16-0.46-0.22c-2.45-0.96-4.98-1.31-7.59-0.9
			c-1.84,0.3-3.55,0.93-5.03,2.08c-1.87,1.44-3.08,3.35-3.78,5.59l-0.09,0.26h-2.61c-0.42,0-0.75,0.34-0.75,0.75v1.67
			c0,0.42,0.34,0.75,0.75,0.75h2.06v1.36h-2.06c-0.42,0-0.75,0.34-0.75,0.75v1.67c0,0.42,0.34,0.75,0.75,0.75h2.48
			c0.19,0.61,0.35,1.23,0.58,1.82c1.26,3.03,3.36,5.19,6.53,6.22c2.62,0.85,5.26,0.82,7.9,0.1c0.69-0.19,1.37-0.43,2.02-0.73
			C88.21,444.05,88.37,443.56,88.12,442.96L88.12,442.96z M88.12,442.96"/>
	</g>
</g>
</svg>
