<svg version="1.1"
	 xmlns="http://www.w3.org/2000/svg" xmlns:xlink="http://www.w3.org/1999/xlink" x="0px" y="0px" viewBox="0 0 42.688 76.974"
	 style="enable-background:new 0 0 42.688 76.974;" xml:space="preserve">
<g>
	<g>
		<defs>
			<rect class="SVGID_1_" x="0.288" y="0.029" width="42" height="76.902"/>
		</defs>
		<clipPath class="SVGID_2_">
			<use xlink:href=".SVGID_1_"  style="overflow:visible;"/>
		</clipPath>
		<path style="clip-path:url(.SVGID_2_);" d="M40.3-0.054l-9.973-0.015c-11.203,0-18.445,7.429-18.445,18.925v8.727H1.854
			c-0.863,0-1.566,0.699-1.566,1.566v12.645c0,0.863,0.703,1.566,1.566,1.566h10.028v31.903c0,0.863,0.703,1.566,1.57,1.566H26.53
			c0.867,0,1.57-0.703,1.57-1.566V43.36h11.723c0.867,0,1.567-0.703,1.567-1.566l0.007-12.645c0-0.414-0.168-0.812-0.461-1.109
			c-0.293-0.293-0.691-0.457-1.109-0.457H28.1v-7.398c0-3.555,0.848-5.36,5.477-5.36l6.719-0.004c0.867,0,1.566-0.703,1.566-1.566
			V1.517C41.862,0.649,41.163-0.05,40.3-0.054L40.3-0.054z M40.3-0.054"/>
	</g>
</g>
</svg>
