<svg class="svg-icon" version="1.1" xmlns="http://www.w3.org/2000/svg" xmlns:xlink="http://www.w3.org/1999/xlink" x="0px" y="0px"
	 viewBox="0 0 14.7 15.1" style="enable-background:new 0 0 14.7 15.1;" xml:space="preserve">
<style type="text/css">
	.st0{fill-rule:evenodd;clip-rule:evenodd;}
</style>
<path fill="#32d5d2" class="st0" d="M14.3,12.7V7.7c0-0.9-0.4-1.7-1-2.3L8,0.9c-0.4-0.3-0.9-0.3-1.3,0L1.4,5.5c-0.7,0.6-1,1.4-1,2.3v4.9
	c0,1.1,0.9,2,2,2h10C13.4,14.7,14.3,13.8,14.3,12.7z M12.3,7.7v4.9h-2v-3c0-1.1-0.9-2-2-2h-2c-1.1,0-2,0.9-2,2v3h-2V7.7
	c0-0.3,0.1-0.6,0.3-0.8l4.7-4L12,7C12.2,7.2,12.3,7.5,12.3,7.7z M8.3,9.7v3h-2v-3H8.3z"/>
</svg>
