<svg version="1.1" xmlns="http://www.w3.org/2000/svg" xmlns:xlink="http://www.w3.org/1999/xlink" x="0px" y="0px"
	 viewBox="0 0 11.208 14.099" style="enable-background:new 0 0 11.208 14.099;" xml:space="preserve">
<path d="M4.094,5.525c0-0.83,0.67-1.5,1.5-1.5s1.5,0.67,1.5,1.5s-0.67,1.5-1.5,1.5S4.094,6.356,4.094,5.525z"/>
<path style="fill-rule:evenodd;clip-rule:evenodd;" d="M6.984,13.126c0.45-0.43,1.04-1.04,1.64-1.78c1.16-1.44,2.47-3.55,2.47-5.85
	c0-3.03-2.47-5.47-5.5-5.47s-5.5,2.44-5.5,5.47c0,2.3,1.31,4.41,2.47,5.85c0.6,0.74,1.19,1.35,1.64,1.78
	c0.38,0.36,0.84,0.89,1.4,0.92C6.154,14.076,6.624,13.465,6.984,13.126z M2.094,5.495c0-1.91,1.56-3.47,3.5-3.47s3.5,1.56,3.5,3.47
	c0,1.59-0.94,3.25-2.03,4.6c-0.53,0.65-1.06,1.2-1.46,1.58l-0.01,0.01l-0.01-0.01c-0.4-0.38-0.93-0.93-1.46-1.58
	C3.034,8.745,2.094,7.086,2.094,5.495z"/>
</svg>
