<svg class="svg-icon" version="1.1" xmlns="http://www.w3.org/2000/svg" xmlns:xlink="http://www.w3.org/1999/xlink" x="0px" y="0px"
	 viewBox="0 0 11.3 14.3" style="enable-background:new 0 0 11.3 14.3;" xml:space="preserve">
<style type="text/css">
	.st0{fill-rule:evenodd;clip-rule:evenodd;}
</style>
<path class="st0" d="M4.1,9.2c-0.6,0-1,0.4-1,1s0.4,1,1,1h3c0.6,0,1-0.4,1-1s-0.4-1-1-1H4.1z"/>
<path class="st0" d="M2.1,14.2h7c1.1,0,2-0.9,2-2v-10c0-1.1-0.9-2-2-2h-7c-1.1,0-2,0.9-2,2v10C0.1,13.3,1,14.2,2.1,14.2z M9.1,12.2
	h-7v-10h7V12.2z"/>
</svg>
