<svg width="517" height="420" viewBox="0 0 517 420" fill="none" xmlns="http://www.w3.org/2000/svg">
<g clip-path="url(#clip1)">
<path d="M238.276 420C236.25 420 234.224 420 232.27 419.927L232.343 418.468C235.237 418.541 238.131 418.614 241.025 418.541V420C240.012 420 239.144 420 238.276 420ZM249.636 419.635L249.564 418.176C252.458 418.03 255.352 417.738 258.174 417.446L258.319 418.906C255.425 419.197 252.53 419.489 249.636 419.635ZM223.515 419.416C220.62 419.197 217.726 418.906 214.832 418.541L214.977 417.081C217.798 417.446 220.693 417.738 223.587 417.957L223.515 419.416ZM266.93 417.811L266.713 416.352C269.535 415.914 272.429 415.403 275.251 414.819L275.54 416.279C272.718 416.862 269.824 417.373 266.93 417.811ZM206.221 417.3C203.399 416.79 200.505 416.279 197.683 415.622L197.972 414.163C200.794 414.746 203.616 415.33 206.438 415.841L206.221 417.3ZM284.079 414.382L283.717 412.995C286.539 412.266 289.288 411.536 292.038 410.733L292.472 412.12C289.723 412.922 286.828 413.652 284.079 414.382ZM189.217 413.579C186.395 412.849 183.573 411.974 180.823 411.098L181.258 409.712C184.007 410.587 186.757 411.39 189.579 412.12L189.217 413.579ZM300.721 409.42L300.215 408.033C302.892 407.085 305.641 406.063 308.319 404.969L308.825 406.355C306.22 407.377 303.471 408.398 300.721 409.42ZM172.575 408.252C169.825 407.231 167.148 406.136 164.47 405.042L165.049 403.728C167.727 404.823 170.404 405.917 173.081 406.939L172.575 408.252ZM316.929 402.853L316.35 401.539C318.955 400.372 321.56 399.058 324.093 397.745L324.744 399.058C322.139 400.372 319.534 401.685 316.929 402.853ZM332.414 394.899L331.69 393.659C334.151 392.199 336.683 390.74 339.071 389.208L339.867 390.448C337.407 391.908 334.874 393.44 332.414 394.899ZM347.103 385.486L346.307 384.319C348.622 382.641 351.01 380.962 353.253 379.138L354.121 380.306C351.806 382.13 349.491 383.808 347.103 385.486ZM126.555 383.443C124.239 381.765 121.851 379.941 119.608 378.117L120.477 376.949C122.72 378.773 125.035 380.525 127.351 382.203L126.555 383.443ZM360.923 374.833L359.983 373.739C362.153 371.842 364.324 369.944 366.495 367.974L367.508 369.069C365.265 370.966 363.094 372.936 360.923 374.833ZM112.879 372.498C110.708 370.601 108.537 368.558 106.439 366.588L107.452 365.566C109.55 367.537 111.649 369.58 113.82 371.477L112.879 372.498ZM373.658 362.867L372.645 361.845C374.671 359.802 376.625 357.613 378.579 355.497L379.664 356.445C377.71 358.634 375.684 360.824 373.658 362.867ZM100.361 360.313C98.3349 358.197 96.3813 356.008 94.5 353.819L95.5853 352.87C97.4666 355.059 99.4203 357.248 101.374 359.291L100.361 360.313ZM385.38 349.805L384.295 348.857C386.104 346.595 387.913 344.333 389.649 341.998L390.807 342.874C388.998 345.208 387.189 347.543 385.38 349.805ZM88.9284 347.033C87.1194 344.771 85.3828 342.363 83.7186 340.028L84.8763 339.152C86.5405 341.487 88.2771 343.822 90.0861 346.084L88.9284 347.033ZM395.8 335.723L394.57 334.92C396.162 332.512 397.754 330.031 399.273 327.623L400.503 328.353C398.984 330.834 397.392 333.315 395.8 335.723ZM78.7258 332.804C77.134 330.396 75.6144 327.842 74.1673 325.361L75.3974 324.632C76.8445 327.113 78.3641 329.593 79.9559 332.001L78.7258 332.804ZM404.917 320.764L403.615 320.035C404.989 317.481 406.364 314.927 407.594 312.3L408.897 312.957C407.667 315.584 406.292 318.211 404.917 320.764ZM412.659 305.003L411.357 304.42C412.515 301.793 413.6 299.02 414.613 296.32L415.988 296.831C414.902 299.604 413.817 302.304 412.659 305.003ZM62.5176 301.866C61.4322 299.166 60.3468 296.466 59.3338 293.694L60.7086 293.183C61.7216 295.883 62.7347 298.655 63.82 301.282L62.5176 301.866ZM418.882 288.513L417.507 288.075C418.376 285.302 419.244 282.53 420.04 279.757L421.415 280.122C420.691 282.967 419.823 285.813 418.882 288.513ZM56.5842 285.375C55.7159 282.603 54.92 279.757 54.1964 276.911L55.5712 276.546C56.2948 279.319 57.0907 282.165 57.959 284.937L56.5842 285.375ZM423.585 271.657L422.211 271.293C422.862 268.447 423.441 265.601 423.947 262.755L425.394 263.047C424.888 265.893 424.309 268.812 423.585 271.657ZM52.1703 268.374C51.5915 265.528 51.0126 262.609 50.5785 259.764L52.0256 259.545C52.4598 262.391 53.0386 265.309 53.6175 268.082L52.1703 268.374ZM426.769 254.364L425.322 254.145C425.684 251.3 426.046 248.381 426.335 245.462L427.782 245.608C427.493 248.527 427.131 251.445 426.769 254.364ZM49.276 251.008C48.9142 248.089 48.6248 245.17 48.4077 242.252L49.8549 242.179C50.072 245.097 50.3614 248.016 50.6508 250.862L49.276 251.008ZM428.361 236.852L426.914 236.779C427.059 233.86 427.131 230.942 427.131 228.096H428.578C428.578 231.015 428.506 233.933 428.361 236.852ZM48.0459 233.495C47.9736 231.671 47.9736 229.847 47.9736 228.096C47.9736 227.001 47.9736 225.834 47.9736 224.739H49.4207C49.4207 225.834 49.4207 226.928 49.4207 228.096C49.4207 229.92 49.4207 231.671 49.4931 233.495H48.0459ZM49.7825 216.056L48.3354 215.983C48.4801 213.065 48.7695 210.146 49.0589 207.227L50.5061 207.373C50.2167 210.219 49.9272 213.138 49.7825 216.056ZM426.19 207.154C425.901 204.309 425.539 202.849 425.105 200.003L426.552 199.785C426.986 202.703 427.348 204.892 427.638 207.738L426.19 207.154ZM51.5915 198.69L50.1443 198.471C50.5785 195.552 51.085 192.707 51.6638 189.788L53.111 190.08C52.6045 192.926 52.0256 195.844 51.5915 198.69ZM423.585 191.393C423.007 188.548 422.428 185.702 421.704 182.856L423.079 182.491C423.73 185.337 424.381 188.183 424.96 191.101L423.585 191.393ZM55.0647 181.616L53.6899 181.251C54.4135 178.405 55.137 175.559 56.0053 172.787L57.3801 173.224C56.5119 175.997 55.7159 178.77 55.0647 181.616ZM419.533 174.465C418.737 171.692 417.869 168.919 416.929 166.147L418.303 165.636C419.244 168.409 420.112 171.181 420.981 174.027L419.533 174.465ZM60.0574 164.906L58.6826 164.395C59.6233 161.623 60.7086 158.85 61.794 156.15L63.1688 156.734C62.0111 159.434 60.9981 162.133 60.0574 164.906ZM413.889 157.974C412.804 155.275 411.719 152.575 410.561 149.948L411.863 149.364C413.021 151.991 414.179 154.764 415.264 157.464L413.889 157.974ZM66.4973 148.707L65.1948 148.124C66.4249 145.497 67.655 142.797 69.0298 140.243L70.3323 140.9C69.0298 143.454 67.7274 146.081 66.4973 148.707ZM406.798 142.067C405.496 139.514 404.121 136.887 402.746 134.406L403.976 133.676C405.424 136.23 406.798 138.784 408.101 141.411L406.798 142.067ZM74.4567 133.165L73.2266 132.436C74.6738 129.882 76.1933 127.401 77.7852 124.92L79.0153 125.723C77.4234 128.131 75.9039 130.685 74.4567 133.165ZM398.332 126.963C396.813 124.482 395.221 122.074 393.557 119.666L394.715 118.864C396.379 121.272 397.971 123.68 399.49 126.161L398.332 126.963ZM83.7909 118.499L82.6332 117.623C84.2974 115.215 86.034 112.88 87.843 110.546L89.0007 111.421C87.1918 113.756 85.4552 116.091 83.7909 118.499ZM388.492 112.662C386.755 110.327 384.946 108.065 383.065 105.876L384.15 104.927C386.032 107.189 387.84 109.451 389.577 111.786L388.492 112.662ZM94.3552 104.708L93.2699 103.76C95.1512 101.571 97.1048 99.3086 99.0585 97.1925L100.144 98.2141C98.1902 100.257 96.2365 102.519 94.3552 104.708ZM377.349 99.3086C375.395 97.1925 373.369 95.0765 371.343 93.0334L372.356 92.0118C374.382 94.0549 376.408 96.171 378.362 98.36L377.349 99.3086ZM106.15 91.9389L105.137 90.9173C107.235 88.8742 109.333 86.8311 111.504 84.934L112.445 86.0285C110.346 87.9257 108.248 89.8958 106.15 91.9389ZM365.12 86.9771C363.022 85.007 360.778 83.1098 358.608 81.2856L359.548 80.1911C361.791 82.0153 363.962 83.9854 366.133 85.9555L365.12 86.9771ZM119.102 80.337L118.161 79.1696C120.404 77.3454 122.72 75.5212 125.035 73.77L125.903 74.9375C123.588 76.6887 121.273 78.5129 119.102 80.337ZM132.922 69.9757L132.126 68.7352C134.514 67.13 136.974 65.5247 139.434 63.9924L140.158 65.2328C137.77 66.7651 135.31 68.3704 132.922 69.9757ZM147.683 60.9277L146.96 59.6143C149.492 58.2279 152.097 56.8416 154.702 55.6011L155.353 56.9145C152.821 58.155 150.216 59.5414 147.683 60.9277ZM322.356 57.4983C319.751 56.1849 317.146 54.9444 314.542 53.7769L315.12 52.4635C317.798 53.631 320.403 54.8714 323.007 56.1849L322.356 57.4983ZM163.24 53.2662L162.661 51.9527C165.339 50.7853 168.016 49.6908 170.693 48.6692L171.2 50.0556C168.522 51.0042 165.845 52.0987 163.24 53.2662ZM306.51 50.4934C303.832 49.4719 301.083 48.4503 298.333 47.5017L298.767 46.1154C301.517 47.0639 304.267 48.0855 307.016 49.107L306.51 50.4934ZM179.376 47.0639L178.942 45.6776C181.692 44.8019 184.514 43.9263 187.263 43.1237L187.625 44.5101C184.875 45.3127 182.053 46.1883 179.376 47.0639ZM290.084 44.8749C287.335 44.0723 284.513 43.3426 281.691 42.6859L282.053 41.2995C284.875 41.9562 287.697 42.6859 290.519 43.4885L290.084 44.8749ZM196.019 42.394L195.729 41.0076C198.551 40.3509 201.445 39.7672 204.267 39.2564L204.557 40.7158C201.663 41.1536 198.841 41.7373 196.019 42.394ZM273.297 40.9347C270.475 40.4239 267.581 39.9131 264.759 39.5483L264.976 38.089C267.87 38.5268 270.765 38.9646 273.587 39.4753L273.297 40.9347ZM213.023 39.3294L212.806 37.8701C215.7 37.5052 218.594 37.1404 221.489 36.9215L221.633 38.3808C218.739 38.5997 215.845 38.9646 213.023 39.3294ZM256.148 38.4538C253.326 38.1619 250.432 37.943 247.538 37.8701L247.61 36.4107C250.504 36.5566 253.399 36.7755 256.293 37.0674L256.148 38.4538ZM230.244 37.7971L230.172 36.3377C232.849 36.1918 235.526 36.1918 238.204 36.1918H238.855V37.6511H238.204C235.599 37.6511 232.849 37.7241 230.244 37.7971Z" fill="#32D5D2"/>
<path d="M234.441 283.77C266.81 283.77 293.051 257.308 293.051 224.666C293.051 192.024 266.81 165.563 234.441 165.563C202.071 165.563 175.831 192.024 175.831 224.666C175.831 257.308 202.071 283.77 234.441 283.77Z" fill="url(#paint0_linear3)"/>
<path d="M271.344 218.829H240.23V187.453H228.652V218.829H197.538V230.504H228.652V261.88H240.23V230.504H271.344V218.829Z" fill="white"/>
<path d="M131.547 324.486H51.8085V418.103H131.547V324.486Z" fill="#1C64E2"/>
<path d="M162.444 418.905H51.0126V306.536H162.444V418.905ZM52.6045 417.373H160.925V308.068H52.6045V417.373Z" fill="#32D5D2"/>
<path d="M142.329 339.298H74.2396V340.83H142.329V339.298Z" fill="#32D5D2"/>
<path d="M142.329 356.445H74.2396V357.978H142.329V356.445Z" fill="#32D5D2"/>
<path d="M142.329 373.666H74.2396V375.198H142.329V373.666Z" fill="#32D5D2"/>
<path d="M323.297 16.6366H162.661V97.0466H323.297V16.6366Z" fill="#1C64E2"/>
<path d="M355.858 97.7762H161.938V0H355.858V97.7762ZM163.385 96.3169H354.411V1.45935H163.385V96.3169Z" fill="#32D5D2"/>
<path d="M295.005 40.7888H190.881V42.2481H295.005V40.7888Z" fill="#32D5D2"/>
<path d="M295.005 56.1119H190.881V57.5712H295.005V56.1119Z" fill="#32D5D2"/>
<path d="M295.005 71.435H190.881V72.8944H295.005V71.435Z" fill="#32D5D2"/>
<path d="M452.239 219.559H383.499V293.256H452.239V219.559Z" fill="#1C64E2"/>
<path d="M469.605 293.985H382.775V206.425H469.605V293.985ZM384.223 292.526H468.158V207.884H384.223V292.526Z" fill="#32D5D2"/>
<path d="M441.747 246.192H393.991V247.651H441.747V246.192Z" fill="#32D5D2"/>
<path d="M441.747 255.678H393.991V257.137H441.747V255.678Z" fill="#32D5D2"/>
<path d="M441.747 265.163H393.991V266.623H441.747V265.163Z" fill="#32D5D2"/>
<path d="M424.381 96.3169H93.3422V97.7762H424.381V96.3169Z" fill="#32D5D2"/>
<path d="M517 292.526H335.381V293.985H517V292.526Z" fill="#32D5D2"/>
<path d="M213.529 418.03H0V419.489H213.529V418.03Z" fill="#32D5D2"/>
</g>
<defs>
<linearGradient id="paint0_linear3" x1="175.802" y1="224.638" x2="293.023" y2="224.638" gradientUnits="userSpaceOnUse">
<stop stop-color="#21ACEF"/>
<stop offset="0.2359" stop-color="#25AFEF"/>
<stop offset="0.4623" stop-color="#30B9F0"/>
<stop offset="0.6851" stop-color="#44C8F2"/>
<stop offset="0.9042" stop-color="#5FDEF5"/>
<stop offset="1" stop-color="#6DEAF6"/>
</linearGradient>
<clipPath id="clip1">
<rect width="517" height="420" fill="white"/>
</clipPath>
</defs>
</svg>
