<svg width="901" height="532" viewBox="0 0 901 532" fill="none" xmlns="http://www.w3.org/2000/svg">
<g clip-path="url(#clip0)">
<path d="M645.6 330.2C640.6 318.7 632.9 308.6 617.5 300.1C609.5 295.6 601 292.2 592.1 290.1C598.1 287.3 603.6 283.6 608.4 279.1C615.5 272.8 620.8 264.8 624 255.8C626.9 246.7 628.1 237.1 627.5 227.6C626.4 210.8 623.1 194.5 614.3 182.8C605.5 171.1 593.1 162.1 576.7 155.8C564.1 151 551.2 148 531.2 146.9V83L491.2 108V147H459.2V106L418.2 83V147H331.1L359.1 195C367.8 195 373.6 195.8 376.6 197.3C379.4 198.5 381.7 200.6 383.1 203.3C384.4 205.8 385 211.7 385 220.8V394C385 403 384.4 408.8 383.1 411.4C381.8 414 381.1 416.3 378 417.7C374.9 419.1 374.8 419 366.2 419H366.1L331.1 467H418.1V531H459.1V467H491.1V531H531.1V466.6C557.1 465.3 575.6 461.9 590.5 456.3C609.8 449.1 624.6 438.6 635.2 424.8C645.8 411 650.1 389.9 651 373.6C651.7 359.1 650.1 340.4 645.6 330.2ZM459.1 201V199.7H487.1C502.8 199.7 555.2 194.5 556.1 237.3C557 280.1 487.1 278.4 487.1 278.4H459.1V275V201ZM459.1 323H491.1C497.6 323 520 324 528.1 324.4C531.4 324.5 534.7 325.1 537.9 326.1C539.1 326.5 540.1 326.9 541.3 327.4C546.2 329 550.9 331.3 555.1 334.4C557.8 336.2 560.3 338.5 562.2 341.1C563.1 342.3 563.8 343.5 564.6 344.8C566.5 348 567.9 351.5 568.8 355.1C569.8 358.6 570.2 362.2 570.3 365.8C570.3 373.6 568.9 380 565.3 385.5C560.5 393.6 552.6 399.3 543.7 403.3C520.7 413.7 491.2 413 491.2 413H459.2L459.1 323Z" fill="url(#paint0_linear2)"/>
<path d="M579.7 14.3C579.4 13.6 578.8 12.9 578.1 12.6C577.7 12.3 577.2 12.1 576.7 12C577 11.8 577.3 11.6 577.6 11.4C578 11 578.3 10.6 578.5 10C578.7 9.5 578.7 8.9 578.7 8.4C578.7 7.5 578.4 6.6 578 5.8C577.5 5.1 576.7 4.5 575.9 4.2C575.1 3.9 574.2 3.7 573.3 3.7V0L571.1 1.5V3.8H569.3V1.3L567 0V3.7H562.1L563.7 6.5C564 6.5 564.4 6.5 564.7 6.6C564.9 6.7 565 6.8 565.1 6.9C565.2 7.2 565.2 7.6 565.2 7.9V18C565.2 18.3 565.2 18.7 565.1 19C565 19.2 565 19.3 564.8 19.4C564.6 19.5 564.6 19.5 564.1 19.5L562.1 22.3H567V26H569.3V22.3H571.1V26H573.3V22.3C574.4 22.3 575.6 22.1 576.6 21.7C577.6 21.3 578.5 20.7 579.1 19.9C579.7 19 580 18 580 16.9C580.1 16 580 15.2 579.7 14.3ZM569.3 6.8L570.9 6.7C571.8 6.7 574.7 6.4 574.8 8.9C574.8 11.4 570.9 11.3 570.9 11.3H569.3V11.1V6.8ZM569.3 13.9H571.1C571.5 13.9 572.7 14 573.2 14C573.4 14 573.6 14 573.7 14.1C573.8 14.1 573.8 14.1 573.9 14.2C574.2 14.3 574.4 14.4 574.7 14.6C574.9 14.7 575 14.8 575.1 15C575.3 15.2 575.4 15.5 575.5 15.8C575.6 16 575.6 16.2 575.6 16.4C575.6 16.8 575.5 17.2 575.3 17.5C575 18 574.6 18.3 574.1 18.5C573.2 18.9 572.2 19.1 571.2 19.1H569.4L569.3 13.9Z" fill="#1C64E2"/>
<path d="M765.7 378.1C772.162 378.1 777.4 372.862 777.4 366.4C777.4 359.938 772.162 354.7 765.7 354.7C759.238 354.7 754 359.938 754 366.4C754 372.862 759.238 378.1 765.7 378.1Z" fill="#FF6584"/>
<path d="M858.2 494.1V360.5" stroke="#1C64E2" stroke-width="2" stroke-miterlimit="10"/>
<path d="M858.2 379.4C868.638 379.4 877.1 370.938 877.1 360.5C877.1 350.062 868.638 341.6 858.2 341.6C847.762 341.6 839.3 350.062 839.3 360.5C839.3 370.938 847.762 379.4 858.2 379.4Z" fill="#1C64E2"/>
<path d="M821 435.3C793.7 477.1 801.2 530.3 801.2 530.3C801.2 530.3 852.9 515.7 880.2 473.8C907.5 431.9 900 378.8 900 378.8C900 378.8 848.3 393.5 821 435.3Z" fill="url(#paint1_linear2)"/>
<path d="M801 529.9C801 529.9 800.3 529.8 799.1 529.5C798.1 529.3 796.8 529 795.1 528.6C780.4 525.1 741.5 513.5 716 482.8C684.1 444.4 685.5 390.6 685.5 390.6C685.5 390.6 734.2 398.5 766.4 433C767.8 434.5 769.1 436 770.5 437.6C798.2 471.1 800.8 516.1 801 527.2C801.1 529 801 529.9 801 529.9Z" fill="url(#paint2_linear2)"/>
<path d="M781.4 435.3C808.7 477.1 801.2 530.3 801.2 530.3C801.2 530.3 749.5 515.7 722.2 473.8C694.9 431.9 702.4 378.8 702.4 378.8C702.4 378.8 754.1 393.5 781.4 435.3Z" stroke="#1C64E2" stroke-width="2" stroke-miterlimit="10"/>
<path opacity="0.1" d="M801 527.3C800.3 528.2 799.6 528.9 799.1 529.5C797.9 530.8 797.3 531.5 797.3 531.5C797.3 531.5 796.5 530.5 795.2 528.6C787.8 518.3 764.1 481.8 766 439.6C766.1 437.4 766.3 435.2 766.5 433C767.9 434.5 769.2 436 770.6 437.6C798.2 471.2 800.8 516.2 801 527.3Z" fill="black"/>
<path d="M841.5 442.7C839.3 492.6 802.3 531.5 802.3 531.5C802.3 531.5 768.8 489.5 770.9 439.6C773 389.7 810.1 350.8 810.1 350.8C810.1 350.8 843.6 392.8 841.5 442.7Z" fill="url(#paint3_linear2)"/>
<path d="M802.3 530.1L810.4 352.9" stroke="#3F3D56" stroke-width="2" stroke-miterlimit="10"/>
<path d="M25.1 530.3H871.1" stroke="#3B8BFF" stroke-width="2" stroke-miterlimit="10"/>
<path d="M204.7 314.1C228.283 314.1 247.4 294.983 247.4 271.4C247.4 247.817 228.283 228.7 204.7 228.7C181.117 228.7 162 247.817 162 271.4C162 294.983 181.117 314.1 204.7 314.1Z" fill="url(#paint4_linear2)"/>
<path d="M132.1 414.7C155.683 414.7 174.8 395.583 174.8 372C174.8 348.417 155.683 329.3 132.1 329.3C108.517 329.3 89.4 348.417 89.4 372C89.4 395.583 108.517 414.7 132.1 414.7Z" fill="url(#paint5_linear2)"/>
<path d="M42.7 495C66.2826 495 85.4 475.883 85.4 452.3C85.4 428.717 66.2826 409.6 42.7 409.6C19.1174 409.6 0 428.717 0 452.3C0 475.883 19.1174 495 42.7 495Z" fill="url(#paint6_linear2)"/>
<path d="M42.7 529.6V452.1" stroke="#1C64E2" stroke-width="2" stroke-miterlimit="10"/>
<path d="M42.7 463.1C48.7751 463.1 53.7 458.175 53.7 452.1C53.7 446.025 48.7751 441.1 42.7 441.1C36.6249 441.1 31.7 446.025 31.7 452.1C31.7 458.175 36.6249 463.1 42.7 463.1Z" fill="#1C64E2"/>
<path d="M42.7 499.8C42.7 499.8 41.1 466.1 9 470Z" fill="#1C64E2"/>
<path d="M204.8 530.1V271.6" stroke="#1C64E2" stroke-width="2" stroke-miterlimit="10"/>
<path d="M204.8 282.5C210.875 282.5 215.8 277.575 215.8 271.5C215.8 265.425 210.875 260.5 204.8 260.5C198.725 260.5 193.8 265.425 193.8 271.5C193.8 277.575 198.725 282.5 204.8 282.5Z" fill="#1C64E2"/>
<path d="M171.1 469.5C177.175 469.5 182.1 464.575 182.1 458.5C182.1 452.425 177.175 447.5 171.1 447.5C165.025 447.5 160.1 452.425 160.1 458.5C160.1 464.575 165.025 469.5 171.1 469.5Z" fill="#1C64E2"/>
<path d="M204.8 327.4C204.8 327.4 203.2 293.7 171.1 297.6Z" fill="#1C64E2"/>
<path d="M204.8 422.9C204.8 422.9 203.2 389.2 171.1 393.1Z" fill="#1C64E2"/>
<path d="M204.8 527.1C204.8 527.1 211.8 461.6 171.1 458.5" stroke="#1C64E2" stroke-width="2" stroke-miterlimit="10"/>
<path d="M238.4 469.5C244.475 469.5 249.4 464.575 249.4 458.5C249.4 452.425 244.475 447.5 238.4 447.5C232.325 447.5 227.4 452.425 227.4 458.5C227.4 464.575 232.325 469.5 238.4 469.5Z" fill="#1C64E2"/>
<path d="M204.8 527.1C204.8 527.1 197.8 461.6 238.5 458.5" stroke="#1C64E2" stroke-width="2" stroke-miterlimit="10"/>
<path d="M239.1 366.7C245.175 366.7 250.1 361.775 250.1 355.7C250.1 349.625 245.175 344.7 239.1 344.7C233.025 344.7 228.1 349.625 228.1 355.7C228.1 361.775 233.025 366.7 239.1 366.7Z" fill="#1C64E2"/>
<path d="M205.4 420.8C205.4 420.8 198.4 358.8 239.1 355.7" stroke="#1C64E2" stroke-width="2" stroke-miterlimit="10"/>
<path d="M132.2 529.8V371.9" stroke="#1C64E2" stroke-width="2" stroke-miterlimit="10"/>
<path d="M132.2 382.9C138.275 382.9 143.2 377.975 143.2 371.9C143.2 365.825 138.275 360.9 132.2 360.9C126.125 360.9 121.2 365.825 121.2 371.9C121.2 377.975 126.125 382.9 132.2 382.9Z" fill="#1C64E2"/>
<path d="M132.2 416.6C132.2 416.6 130.6 382.9 98.5 386.8Z" fill="#1C64E2"/>
<path d="M132.2 526.7C132.2 526.7 139.2 461.9 98.5 458.8" stroke="#1C64E2" stroke-width="2" stroke-miterlimit="10"/>
<path d="M98.5 469.8C104.575 469.8 109.5 464.875 109.5 458.8C109.5 452.725 104.575 447.8 98.5 447.8C92.4249 447.8 87.5 452.725 87.5 458.8C87.5 464.875 92.4249 469.8 98.5 469.8Z" fill="#1C64E2"/>
<path d="M740.8 273C740.6 272.4 740.1 271.9 739.6 271.6C739.3 271.4 738.9 271.2 738.5 271.1C738.8 271 739 270.8 739.2 270.6C739.5 270.3 739.7 270 739.9 269.5C740 269.1 740.1 268.7 740.1 268.2C740.1 267.5 739.9 266.8 739.5 266.2C739.1 265.6 738.5 265.2 737.9 265C737.3 264.8 736.6 264.6 735.9 264.6V261.7L734.2 262.8V264.6H732.8V262.8L731 261.8V264.7H727.2L728.4 266.9C728.7 266.9 728.9 266.9 729.2 267C729.3 267.1 729.4 267.2 729.5 267.3C729.6 267.6 729.6 267.8 729.6 268.1V275.9C729.6 276.2 729.6 276.4 729.5 276.7C729.4 276.8 729.4 276.9 729.3 277C729.2 277.1 729.2 277.1 728.8 277.1L727.3 279.3H731.1V282.2H732.9V279.3H734.3V282.2H736V279.3C736.9 279.3 737.8 279.1 738.6 278.8C739.4 278.5 740 278 740.5 277.4C740.9 276.7 741.2 275.9 741.2 275.1C741.1 274.3 741 273.7 740.8 273ZM732.7 267.2L733.9 267.1C734.6 267.1 736.9 266.9 736.9 268.8C736.9 270.7 733.9 270.7 733.9 270.7H732.7V270.6V267.2ZM732.7 272.7H734.1C734.4 272.7 735.4 272.7 735.7 272.8C735.8 272.8 736 272.8 736.1 272.9C736.2 272.9 736.2 272.9 736.2 273C736.4 273.1 736.6 273.2 736.8 273.3C736.9 273.4 737 273.5 737.1 273.6C737.2 273.8 737.3 274 737.4 274.2C737.4 274.4 737.5 274.5 737.5 274.7C737.5 275 737.4 275.3 737.3 275.6C737.1 276 736.7 276.2 736.4 276.4C735.7 276.7 734.9 276.8 734.1 276.8H732.7V272.7Z" fill="#1C64E2"/>
<path d="M38.8 336C38.6 335.4 38.1 334.9 37.6 334.6C37.3 334.4 36.9 334.2 36.5 334.1C36.8 334 37 333.8 37.2 333.6C37.5 333.3 37.7 333 37.9 332.5C38 332.1 38.1 331.7 38.1 331.2C38.1 330.5 37.9 329.8 37.5 329.2C37.1 328.6 36.5 328.2 35.9 328C35.3 327.8 34.6 327.6 33.9 327.6V324.7L32.2 325.8V327.6H30.8V325.8L29 324.8V327.7H25.2L26.4 329.9C26.7 329.9 26.9 329.9 27.2 330C27.3 330.1 27.4 330.2 27.5 330.3C27.6 330.6 27.6 330.8 27.6 331.1V338.9C27.6 339.2 27.6 339.4 27.5 339.7C27.4 339.8 27.4 339.9 27.3 340C27.2 340.1 27.2 340.1 26.8 340.1L25.3 342.3H29.1V345.2H30.9V342.3H32.3V345.2H34V342.3C34.9 342.3 35.8 342.1 36.6 341.8C37.4 341.5 38 341 38.5 340.4C38.9 339.7 39.2 338.9 39.2 338.1C39.1 337.3 39 336.7 38.8 336ZM30.7 330.2L31.9 330.1C32.6 330.1 34.9 329.9 34.9 331.8C34.9 333.7 31.9 333.7 31.9 333.7H30.7V333.6V330.2ZM30.7 335.7H32.1C32.4 335.7 33.4 335.7 33.7 335.8C33.8 335.8 34 335.8 34.1 335.9C34.2 335.9 34.2 335.9 34.2 336C34.4 336.1 34.6 336.2 34.8 336.3C34.9 336.4 35 336.5 35.1 336.6C35.2 336.8 35.3 337 35.4 337.2C35.4 337.4 35.5 337.5 35.5 337.7C35.5 338 35.4 338.3 35.3 338.6C35.1 339 34.7 339.2 34.4 339.4C33.7 339.7 32.9 339.8 32.1 339.8H30.7V335.7Z" fill="#1C64E2"/>
</g>
<defs>
<linearGradient id="paint0_linear2" x1="331.076" y1="307" x2="651.134" y2="307" gradientUnits="userSpaceOnUse">
<stop stop-color="#21ACEF"/>
<stop offset="0.2359" stop-color="#25AFEF"/>
<stop offset="0.4623" stop-color="#30B9F0"/>
<stop offset="0.6851" stop-color="#44C8F2"/>
<stop offset="0.9042" stop-color="#5FDEF5"/>
<stop offset="1" stop-color="#6DEAF6"/>
</linearGradient>
<linearGradient id="paint1_linear2" x1="800.254" y1="454.605" x2="900.916" y2="454.605" gradientUnits="userSpaceOnUse">
<stop stop-color="#21ACEF"/>
<stop offset="0.2359" stop-color="#25AFEF"/>
<stop offset="0.4623" stop-color="#30B9F0"/>
<stop offset="0.6851" stop-color="#44C8F2"/>
<stop offset="0.9042" stop-color="#5FDEF5"/>
<stop offset="1" stop-color="#6DEAF6"/>
</linearGradient>
<linearGradient id="paint2_linear2" x1="685.584" y1="460.257" x2="801.053" y2="460.257" gradientUnits="userSpaceOnUse">
<stop stop-color="#21ACEF"/>
<stop offset="0.2359" stop-color="#25AFEF"/>
<stop offset="0.4623" stop-color="#30B9F0"/>
<stop offset="0.6851" stop-color="#44C8F2"/>
<stop offset="0.9042" stop-color="#5FDEF5"/>
<stop offset="1" stop-color="#6DEAF6"/>
</linearGradient>
<linearGradient id="paint3_linear2" x1="770.805" y1="441.182" x2="841.586" y2="441.182" gradientUnits="userSpaceOnUse">
<stop stop-color="#21ACEF"/>
<stop offset="0.2359" stop-color="#25AFEF"/>
<stop offset="0.4623" stop-color="#30B9F0"/>
<stop offset="0.6851" stop-color="#44C8F2"/>
<stop offset="0.9042" stop-color="#5FDEF5"/>
<stop offset="1" stop-color="#6DEAF6"/>
</linearGradient>
<linearGradient id="paint4_linear2" x1="162.02" y1="271.425" x2="247.479" y2="271.425" gradientUnits="userSpaceOnUse">
<stop stop-color="#21ACEF"/>
<stop offset="0.2359" stop-color="#25AFEF"/>
<stop offset="0.4623" stop-color="#30B9F0"/>
<stop offset="0.6851" stop-color="#44C8F2"/>
<stop offset="0.9042" stop-color="#5FDEF5"/>
<stop offset="1" stop-color="#6DEAF6"/>
</linearGradient>
<linearGradient id="paint5_linear2" x1="89.3903" y1="371.99" x2="174.85" y2="371.99" gradientUnits="userSpaceOnUse">
<stop stop-color="#21ACEF"/>
<stop offset="0.2359" stop-color="#25AFEF"/>
<stop offset="0.4623" stop-color="#30B9F0"/>
<stop offset="0.6851" stop-color="#44C8F2"/>
<stop offset="0.9042" stop-color="#5FDEF5"/>
<stop offset="1" stop-color="#6DEAF6"/>
</linearGradient>
<linearGradient id="paint6_linear2" x1="0" y1="452.301" x2="85.4595" y2="452.301" gradientUnits="userSpaceOnUse">
<stop stop-color="#21ACEF"/>
<stop offset="0.2359" stop-color="#25AFEF"/>
<stop offset="0.4623" stop-color="#30B9F0"/>
<stop offset="0.6851" stop-color="#44C8F2"/>
<stop offset="0.9042" stop-color="#5FDEF5"/>
<stop offset="1" stop-color="#6DEAF6"/>
</linearGradient>
<clipPath id="clip0">
<rect width="900.9" height="531.6" fill="white"/>
</clipPath>
</defs>
</svg>
