<?xml version="1.0" encoding="utf-8"?>
<!-- Generator: Adobe Illustrator 23.0.6, SVG Export Plug-In . SVG Version: 6.00 Build 0)  -->
<svg version="1.1" id="Слой_1" xmlns="http://www.w3.org/2000/svg" xmlns:xlink="http://www.w3.org/1999/xlink" x="0px" y="0px"
	 viewBox="0 0 904 754.8" style="enable-background:new 0 0 904 754.8;" xml:space="preserve">
<style type="text/css">
	.st0{opacity:0.1;fill:#FFFFFF;enable-background:new    ;}
	.st1{fill:#64FFDA;}
	.st2{opacity:0.7;}
	.st3{opacity:0.6;}
	.st4{opacity:0.5;}
	.st5{opacity:0.4;}
	.st6{opacity:0.3;}
	.st7{fill:#6C63FF;}
	.st8{fill:url(#SVGID_1_);}
	.st9{fill:#32D5D2;}
	.st10{fill:none;stroke:#32D5D2;stroke-width:4;stroke-linecap:round;stroke-linejoin:round;}
	.st11{fill:none;stroke:#32D5D2;stroke-width:4;stroke-linecap:round;stroke-linejoin:round;stroke-dasharray:12.52,33.38;}
	.st12{fill:none;stroke:#32D5D2;stroke-width:4;stroke-linecap:round;stroke-linejoin:round;stroke-dasharray:11.93,31.8;}
	.st13{fill:none;stroke:#32D5D2;stroke-width:4;stroke-linecap:round;stroke-linejoin:round;stroke-dasharray:11.55,30.79;}
	.st14{fill:#1C64E2;}
	.st15{fill:url(#SVGID_2_);}
	.st16{fill:#3B8BFF;}
	.st17{opacity:0.1;fill:url(#SVGID_3_);enable-background:new    ;}
	.st18{fill:url(#SVGID_4_);}
</style>
<rect x="77.35" y="337.32" class="st0" width="335.05" height="120.14"/>
<rect x="104.67" y="346.76" class="st1" width="12.98" height="61.55"/>
<g class="st2">
	<rect x="130.3" y="346.76" class="st1" width="12.98" height="61.55"/>
</g>
<g class="st3">
	<rect x="155.93" y="346.76" class="st1" width="12.98" height="61.55"/>
</g>
<g class="st4">
	<rect x="181.56" y="346.76" class="st1" width="12.98" height="61.55"/>
</g>
<g class="st4">
	<rect x="207.19" y="346.76" class="st1" width="12.98" height="61.55"/>
</g>
<g class="st5">
	<rect x="232.83" y="346.76" class="st1" width="12.98" height="61.55"/>
</g>
<g class="st6">
	<rect x="258.46" y="346.76" class="st1" width="12.98" height="61.55"/>
</g>
<circle class="st7" cx="364.77" cy="377.11" r="31.36"/>
<rect x="77.19" y="193.48" class="st0" width="335.05" height="120.14"/>
<rect x="104.67" y="221.98" class="st1" width="12.98" height="61.55"/>
<g class="st2">
	<rect x="130.3" y="221.98" class="st1" width="12.98" height="61.55"/>
</g>
<g class="st3">
	<rect x="155.93" y="221.98" class="st1" width="12.98" height="61.55"/>
</g>
<g class="st4">
	<rect x="181.56" y="221.98" class="st1" width="12.98" height="61.55"/>
</g>
<g class="st4">
	<rect x="207.19" y="221.98" class="st1" width="12.98" height="61.55"/>
</g>
<g class="st5">
	<rect x="232.83" y="221.98" class="st1" width="12.98" height="61.55"/>
</g>
<g class="st6">
	<rect x="258.46" y="221.98" class="st1" width="12.98" height="61.55"/>
</g>
<circle class="st7" cx="364.77" cy="252.33" r="31.36"/>
<rect x="77.19" y="68.7" class="st0" width="335.05" height="120.14"/>
<rect x="104.67" y="97.11" class="st1" width="12.98" height="61.55"/>
<g class="st2">
	<rect x="130.3" y="97.11" class="st1" width="12.98" height="61.55"/>
</g>
<g class="st3">
	<rect x="155.93" y="97.11" class="st1" width="12.98" height="61.55"/>
</g>
<g class="st4">
	<rect x="181.56" y="97.11" class="st1" width="12.98" height="61.55"/>
</g>
<g class="st4">
	<rect x="207.19" y="97.11" class="st1" width="12.98" height="61.55"/>
</g>
<g class="st5">
	<rect x="232.83" y="97.11" class="st1" width="12.98" height="61.55"/>
</g>
<g class="st6">
	<rect x="258.46" y="97.11" class="st1" width="12.98" height="61.55"/>
</g>
<linearGradient id="SVGID_1_" gradientUnits="userSpaceOnUse" x1="364.7729" y1="1841.3584" x2="364.7729" y2="1773.7405" gradientTransform="matrix(1 0 0 1 0 -1680)">
	<stop  offset="0" style="stop-color:#808080;stop-opacity:0.25"/>
	<stop  offset="0.54" style="stop-color:#808080;stop-opacity:0.12"/>
	<stop  offset="1" style="stop-color:#808080;stop-opacity:0.1"/>
</linearGradient>
<circle class="st8" cx="364.77" cy="127.55" r="33.81"/>
<circle class="st9" cx="364.77" cy="253.17" r="33.81"/>
<circle class="st9" cx="364.77" cy="377.96" r="33.81"/>
<circle class="st9" cx="364.77" cy="127.55" r="31.36"/>
<g class="st2">
	<line class="st10" x1="460.13" y1="193.82" x2="465.19" y2="193.82"/>
	<line class="st11" x1="493.35" y1="193.82" x2="634.06" y2="193.82"/>
	<polyline class="st10" points="648.14,193.82 653.2,193.82 653.2,198.88 	"/>
	<line class="st12" x1="653.2" y1="225.69" x2="653.2" y2="322.9"/>
	<line class="st10" x1="653.2" y1="336.31" x2="653.2" y2="341.36"/>
</g>
<g class="st2">
	<line class="st10" x1="381.38" y1="575.75" x2="376.32" y2="575.67"/>
	<line class="st11" x1="348.16" y1="575.58" x2="207.45" y2="574.91"/>
	<polyline class="st10" points="193.37,574.82 188.31,574.82 188.31,569.76 	"/>
	<line class="st13" x1="188.48" y1="543.8" x2="188.9" y2="485.37"/>
	<line class="st10" x1="188.98" y1="472.38" x2="188.98" y2="467.33"/>
</g>
<path class="st14" d="M679.51,591.6c0,0,10.03,67.87,69.39,90.47H508.61C567.88,659.47,578,591.6,578,591.6H679.51z"/>
<linearGradient id="SVGID_2_" gradientUnits="userSpaceOnUse" x1="628.6682" y1="2376.3748" x2="628.6682" y2="2362.0417" gradientTransform="matrix(1 0 0 1 0 -1680)">
	<stop  offset="0" style="stop-color:#808080;stop-opacity:0.25"/>
	<stop  offset="0.54" style="stop-color:#808080;stop-opacity:0.12"/>
	<stop  offset="1" style="stop-color:#808080;stop-opacity:0.1"/>
</linearGradient>
<rect x="507.43" y="682.07" class="st15" width="242.48" height="14.33"/>
<rect x="508.61" y="682.07" class="st16" width="240.29" height="11.04"/>
<linearGradient id="SVGID_3_" gradientUnits="userSpaceOnUse" x1="777.6378" y1="2368.6711" x2="777.6378" y2="2103.0051" gradientTransform="matrix(1 0 0 1 -148 -1752.62)">
	<stop  offset="0" style="stop-color:#808080;stop-opacity:0.25"/>
	<stop  offset="0.54" style="stop-color:#808080;stop-opacity:0.12"/>
	<stop  offset="1" style="stop-color:#808080;stop-opacity:0.1"/>
</linearGradient>
<path class="st17" d="M824.61,350.39H434.67c-4.97,0-9.11,4.05-9.11,9.11l0,0v245.68c0,5.99,4.89,10.88,10.88,10.88h386.4
	c5.99,0,10.88-4.89,10.88-10.88V359.41C833.63,354.43,829.58,350.39,824.61,350.39L824.61,350.39z"/>
<path class="st16" d="M439.56,354.09h378.47c4.97,0,9.11,4.05,9.11,9.11l0,0v210.27l0,0H430.45l0,0V363.12
	C430.45,358.14,434.5,354.09,439.56,354.09L439.56,354.09z"/>
<path class="st14" d="M816.18,609.64H441.33c-5.99,0-10.88-4.89-10.88-10.88v-25.29h396.6v25.38
	C827.05,604.84,822.16,609.64,816.18,609.64z"/>
<linearGradient id="SVGID_4_" gradientUnits="userSpaceOnUse" x1="450.0962" y1="295.5461" x2="808.9265" y2="295.5461" gradientTransform="matrix(1 0 0 -1 0 756)">
	<stop  offset="0" style="stop-color:#21ACEF"/>
	<stop  offset="0.2359" style="stop-color:#25AFEF"/>
	<stop  offset="0.4623" style="stop-color:#30B9F0"/>
	<stop  offset="0.6851" style="stop-color:#44C8F2"/>
	<stop  offset="0.9042" style="stop-color:#5FDEF5"/>
	<stop  offset="1" style="stop-color:#6DEAF6"/>
</linearGradient>
<rect x="450.1" y="371.88" class="st18" width="358.83" height="177.14"/>
</svg>
