<?xml version="1.0" encoding="iso-8859-1"?>
<!-- Generator: Adobe Illustrator 22.0.1, SVG Export Plug-In . SVG Version: 6.00 Build 0)  -->
<svg version="1.1" id="&#x421;&#x43B;&#x43E;&#x439;_1"
	 xmlns="http://www.w3.org/2000/svg" xmlns:xlink="http://www.w3.org/1999/xlink" x="0px" y="0px" viewBox="0 0 34.667 35.933"
	 style="enable-background:new 0 0 34.667 35.933;" xml:space="preserve">
<g>
	<path d="M17.371,16.974c1.703,0,3.117-1.379,3.117-3.078V3.115c0-1.7-1.414-3.079-3.117-3.079c-1.699,0-3.113,1.379-3.113,3.079
		v10.781C14.258,15.595,15.672,16.974,17.371,16.974L17.371,16.974z M17.371,16.974"/>
	<path d="M24.031,2.701c-0.386-0.16-0.824-0.117-1.172,0.114c-0.347,0.23-0.558,0.621-0.558,1.039v4.09
		c0,0.449,0.242,0.859,0.629,1.082c3.351,1.925,5.535,5.507,5.535,9.601c0,6.121-4.977,11.106-11.098,11.106
		c-6.121,0-11.086-4.985-11.086-11.106c0-4.09,2.25-7.672,5.543-9.597c0.383-0.223,0.617-0.637,0.617-1.079V3.853
		c0-0.418-0.207-0.809-0.554-1.039c-0.348-0.235-0.789-0.274-1.172-0.114c-6.262,2.61-10.59,8.758-10.59,15.926
		c0,9.535,7.723,17.266,17.258,17.266c9.535,0,17.242-7.731,17.242-17.266C34.625,11.458,30.293,5.31,24.031,2.701L24.031,2.701z
		 M24.031,2.701"/>
</g>
</svg>
