<svg version="1.1" xmlns="http://www.w3.org/2000/svg" xmlns:xlink="http://www.w3.org/1999/xlink" x="0px" y="0px"
	 viewBox="0 0 14.052 13.144" style="enable-background:new 0 0 14.052 13.144;" xml:space="preserve">
<path d="M13.684,11.315l-6-5c-0.37-0.31-0.91-0.31-1.28,0l-6,5c-0.42,0.36-0.48,0.99-0.13,1.41c0.36,0.42,0.99,0.48,1.41,0.13
	l5.36-4.47l5.36,4.47c0.42,0.35,1.05,0.29,1.41-0.13C14.164,12.305,14.104,11.675,13.684,11.315z"/>
<path d="M13.684,5.315l-6-5c-0.37-0.31-0.91-0.31-1.28,0l-6,5c-0.42,0.36-0.48,0.99-0.13,1.41c0.36,0.42,0.99,0.48,1.41,0.13
	l5.36-4.47l5.36,4.47c0.42,0.35,1.05,0.29,1.41-0.13C14.164,6.305,14.104,5.675,13.684,5.315z"/>
</svg>
