<svg class="svg-icon" version="1.1" xmlns="http://www.w3.org/2000/svg" xmlns:xlink="http://www.w3.org/1999/xlink" x="0px" y="0px" viewBox="0 0 15 12" style="enable-background:new 0 0 14.7 11.2;" xml:space="preserve">
<style type="text/css">
  .st0{fill-rule:evenodd;clip-rule:evenodd;}
</style>
<path class="st0" fill="#32d5d2" d="M14.3,2.1c0-1.1-0.9-2-2-2h-10c-1.1,0-2,0.9-2,2c0,0,0,0,0,0v7c0,1.1,0.9,2,2,2h10c1.1,0,2-0.9,2-2V2.1
  C14.3,2.1,14.3,2.1,14.3,2.1z M11.5,2.1L7.3,4.9L3.1,2.1H11.5z M12.3,4L7.9,7c0,0-0.1,0.1-0.1,0.1C7.6,7.1,7.5,7.1,7.3,7.1
  S7,7.1,6.9,7.1C6.9,7,6.8,7,6.8,7L2.3,4v5.1h10V4z"></path>
</svg>